<svg fill="none" height="85" viewBox="0 0 120 85" width="120" xmlns="http://www.w3.org/2000/svg" xmlns:xlink="http://www.w3.org/1999/xlink"><clipPath id="a"><path d="m0 0h120v85h-120z"/></clipPath><g clip-path="url(#a)" fill="#282828"><path d="m70.6904 26.9407c-.1997-.289-.2974-.6927-.2974-1.2155 0-.4887-.0212-.8755-.0637-1.156-.0425-.2847-.1487-.5142-.3186-.697-.1699-.1827-.4333-.272-.7987-.272h-.7307c-.2124 0-.3186.1063-.3186.3188v2.5372c0 .136.0425.2423.1232.3188s.1912.119.3229.119c.1189 0 .2379-.0085.3526-.0213.1147-.0127.1996-.0212.2634-.0212.1402 0 .2124.0765.2124.2337 0 .1573-.0722.2338-.2124.2338-.051 0-.1445-.0085-.2847-.0213-.3611-.0212-.6542-.034-.8836-.034h-.8497c-.2251 0-.5225.0128-.8836.034-.1402.0128-.2379.0213-.2846.0213-.1402 0-.2124-.0765-.2124-.2338 0-.1572.0722-.2337.2124-.2337.0637 0 .1529.0085.2634.0212.1104.0128.2294.0213.3526.0213.1359 0 .2421-.0383.3228-.119.0808-.0765.1232-.1828.1232-.3188v-5.8225c0-.136-.0424-.2422-.1232-.3187-.0807-.0765-.1911-.119-.3228-.119-.119 0-.2379.0085-.3526.0212-.1147.0128-.2039.0213-.2634.0213-.1402 0-.2124-.0765-.2124-.2338 0-.1572.0722-.2337.2124-.2337.051 0 .1444.0085.2846.0212.3611.0213.6542.0298.8836.0298h2.0052c.7562 0 1.4062.1445 1.95.4377.5437.2933.8114.765.8114 1.4238 0 .476-.1869.8542-.5565 1.1432-.3739.289-.803.4888-1.2915.5993-.0085 0-.0213 0-.0382.0127-.017.0085-.0255.017-.0255.034 0 .0213.0127.034.0425.0425.3738.0978.6712.2295.8836.3868.2124.1572.3696.3782.4715.6545.102.2762.153.6502.153 1.1135 0 .4632.0212.799.0679.9945.0468.1955.153.2932.3229.2932.1912 0 .3229-.0935.3993-.2805.0765-.187.1105-.4972.1105-.9307 0-.0638-.0085-.1403-.0212-.2295-.0128-.0893-.0213-.1488-.0213-.1743v-.0425c0-.051.017-.0892.0467-.1232.0298-.034.068-.0468.1105-.0468.1147 0 .1827.0723.2124.2125.0298.1615.0425.3273.0425.4888 0 .5737-.0977.9732-.2931 1.2027-.1955.2253-.4971.34-.9092.34-.4673 0-.7986-.1445-.9983-.4292zm-1.4784-3.6592c.5183 0 .9134-.1233 1.1853-.3783s.4078-.6375.4078-1.1645-.1359-.9095-.4078-1.1645-.667-.3782-1.1853-.3782h-.7307c-.2124 0-.3186.1062-.3186.3187v2.4438c0 .2125.1062.3187.3186.3187h.7307z"/><path d="m74.2801 27.017c-.3101-.238-.5523-.5483-.7179-.9308-.1657-.3825-.2507-.7862-.2507-1.2112s.085-.8203.2507-1.207c.1656-.3868.3993-.697.7009-.935s.6373-.357 1.0154-.357c.378 0 .7009.102.9728.306s.4801.4802.6202.8245c.1402.3442.2125.7225.2125 1.1305 0 .0722-.0213.136-.068.1955s-.119.0892-.2167.0892h-2.2643c-.1062 0-.1784.017-.2124.051s-.051.1063-.0425.2125c.0298.6078.153 1.071.3739 1.3855s.497.4718.8369.4718c.3398 0 .5947-.1233.8029-.3655.2081-.2465.3526-.5653.4291-.9605.0297-.136.0807-.1998.1614-.1998.1274 0 .1742.0935.1359.2763-.0849.4377-.2634.8117-.5395 1.1135-.2761.306-.6415.4547-1.096.4547-.4249 0-.7945-.119-1.1046-.357zm1.6016-2.4055c.1062 0 .1784-.017.2124-.051s.051-.1063.051-.2125c-.0212-.6375-.102-1.0795-.2464-1.326-.1402-.2465-.3484-.374-.6245-.374s-.514.1402-.6882.4207c-.1784.2805-.2804.7055-.3059 1.2793-.0085.1062.0085.1785.0425.2125s.1062.051.2124.051z"/><path d="m78.0056 27.1827c.0128-.3697.0213-.629.0213-.7862 0-.1573-.0085-.4335-.0213-.8288 0-.0935.034-.136.1062-.136.0425 0 .0765.017.102.0595s.051.1063.0807.1955c.0977.306.2804.6163.5438.935.2634.3188.582.476.9558.476.2974 0 .5183-.0722.6627-.221.1445-.1487.2167-.34.2167-.5737 0-.425-.2506-.7268-.7562-.9138l-.8369-.3187c-.7307-.2848-1.096-.7608-1.096-1.4365 0-.3953.1232-.7055.3738-.9265.2464-.221.5438-.3315.8921-.3315.3272 0 .6203.0807.8837.2465.051.0297.0977.051.1402.0722.0425.0213.0892.034.1402.034.0722 0 .1147-.0382.1402-.119.0339-.0977.0637-.1615.0849-.1912.0213-.0298.0553-.0425.1062-.0425.0765 0 .119.051.119.1615-.0085.1615-.0128.3952-.0128.6885 0 .3102 0 .5652.0128.765 0 .1275-.0425.1912-.1275.1912-.0425 0-.0722-.0212-.0977-.0637s-.051-.1275-.0849-.255c-.0978-.391-.2549-.6885-.4631-.8968-.2082-.2082-.4886-.3145-.8454-.3145-.2337 0-.4206.0638-.565.187-.1402.1233-.2124.289-.2124.493 0 .2423.0637.425.1954.5483.1317.1232.3611.2507.684.3782l.7774.2975c.3186.119.5735.3018.7647.544.1911.2423.2846.5355.2846.8798 0 .4122-.119.748-.3611 1.003-.2422.2592-.5863.3867-1.0323.3867-.1997 0-.3739-.0297-.5183-.085-.1444-.0552-.3186-.1445-.5098-.2635-.0297-.0212-.068-.051-.1147-.085-.051-.034-.0892-.051-.1189-.051-.0425 0-.0808.0383-.119.119-.0637.1488-.1105.2465-.1359.2975-.0298.051-.0723.0723-.1275.0723-.085 0-.1274-.0638-.1274-.1913z"/><path d="m81.8038 29.6139c-.034-.0298-.0468-.0765-.0468-.1488 0-.136.0638-.1997.1912-.1997l.4461.0212c.0977 0 .1784-.0297.2336-.0892s.085-.1445.085-.2508v-5.525c0-.2125-.0637-.3697-.1954-.4675-.1317-.0977-.3654-.1487-.7052-.1487-.0723 0-.1062-.0553-.1062-.17 0-.051.0127-.0893.0339-.1148.0213-.0255.0468-.0425.0723-.0425.4035 0 .7901-.0127 1.1555-.0425l.3823-.0212c.1402 0 .2124.0765.2124.2337v.595c0 .034.0128.051.034.051.0128 0 .034-.017.051-.051s.034-.0595.0425-.0765c.2974-.5227.6585-.7862 1.0833-.7862.3696 0 .6924.119.9771.3527.2846.2338.5013.5398.6585.9223.1571.3825.2336.7905.2336 1.224s-.0765.8372-.2336 1.224c-.1572.3825-.3739.6885-.6585.9265-.2847.2337-.6075.3485-.9771.3485-.4248 0-.7859-.2635-1.0833-.7863-.0085-.0127-.0213-.0382-.0425-.0765-.0212-.034-.0382-.051-.051-.051-.0212 0-.034.017-.034.051v2.4353c0 .1062.0298.1912.085.2507s.1402.0893.2549.0893c.1189 0 .2209 0 .3016-.0128.0807-.0085.1487-.0085.2082-.0085.1402 0 .2124.0638.2124.1913 0 .0722-.017.1232-.0467.153-.034.0297-.085.0467-.1657.0467-.0637 0-.1699-.0085-.3186-.0255s-.3781-.0255-.6882-.0255h-.5311c-.2549 0-.4503.0085-.5905.0255s-.2421.0255-.3144.0255c-.0764 0-.1317-.0127-.1656-.0425zm3.6237-3.0388c.1742-.3527.2592-.9222.2592-1.7 0-.7777-.085-1.3472-.2592-1.7-.1742-.3527-.4078-.5312-.7052-.5312-.1997 0-.3866.085-.5608.255-.1784.17-.3186.425-.429.7607-.1105.3358-.1657.7438-.1657 1.2155 0 .4718.0552.8798.1657 1.2155.1104.3358.2549.5908.429.7608.1785.17.3654.255.5608.255.2974 0 .531-.1785.7052-.5313z"/><path d="m88.4526 27c-.2167-.2465-.3229-.6375-.3229-1.1688v-2.4437c0-.255-.0467-.4208-.1402-.4973-.0934-.0765-.2761-.119-.5522-.119-.0723 0-.1062-.0552-.1062-.17 0-.051.0127-.0892.0339-.119.0213-.0297.0468-.0425.0723-.0425.3611 0 .6882-.0127.9898-.0425.1827-.0127.2974-.0212.3399-.0212.1401 0 .2124.0765.2124.2337v3.2725c0 .7778.2124 1.1688.6372 1.1688.1997 0 .3823-.085.5523-.255.1699-.17.3059-.4123.4078-.7268.102-.3145.1529-.68.1529-1.088v-1.5937c0-.255-.0467-.4208-.1401-.4973-.0935-.0765-.2762-.119-.5523-.119-.0722 0-.1062-.0552-.1062-.17 0-.051.0127-.0892.034-.119.0212-.0297.0467-.0425.0722-.0425.3611 0 .6882-.0127.9898-.0425.1827-.0127.2974-.0212.3399-.0212.1402 0 .2124.0765.2124.2337v3.706c0 .255.0467.4208.1402.5015.0934.0765.2761.1148.5523.1148.0722 0 .1062.0552.1062.17 0 .051-.0128.0892-.034.119-.0213.0297-.0468.0425-.0722.0425-.3611 0-.6883.0127-.9899.0425-.1827.0127-.2974.0212-.3398.0212-.1402 0-.2125-.0765-.2125-.2337v-.6035c0-.0298-.0127-.0425-.0339-.0425-.0128 0-.034.0255-.051.0722-.0765.204-.2209.3995-.4248.578-.204.1785-.4589.272-.7647.272-.4546 0-.786-.1232-1.0026-.374z"/><path d="m93.4617 27.3231c-.0128-.034-.0213-.085-.0213-.153v-6.3538c0-.2125-.0637-.3697-.1954-.4675-.1317-.0977-.3653-.1487-.7052-.1487-.0722 0-.1062-.0553-.1062-.17 0-.051.0127-.0893.034-.1148.0212-.0255.0467-.0425.0722-.0425.4036 0 .7902-.0127 1.1555-.0425l.3824-.0212c.1402 0 .2124.0765.2124.2337v3.2003c0 .034.0127.051.034.051.0127 0 .0339-.017.0509-.051s.034-.0595.0425-.0765c.2974-.5228.6585-.7863 1.0833-.7863.3696 0 .6925.119.9771.3528.2847.2337.5013.5397.6585.9222s.2336.7905.2336 1.224-.0764.8373-.2336 1.224c-.1572.3825-.3738.6885-.6585.9265-.2846.2338-.6075.3485-.9771.3485-.2634 0-.4758-.0552-.6457-.1657s-.3016-.2168-.3908-.3188c-.0935-.102-.1487-.1657-.17-.187-.034-.034-.0637-.051-.0849-.051-.0213 0-.0595.034-.1147.1063l-.3611.4887c-.0638.085-.119.1275-.17.1275s-.0807-.017-.0977-.0467zm2.6933-.748c.1742-.3528.2592-.9223.2592-1.7 0-.7778-.085-1.3473-.2592-1.7-.1741-.3528-.4078-.5313-.7052-.5313-.1996 0-.3865.085-.5607.255-.1785.17-.3186.425-.4291.7608-.1104.3357-.1657.7437-.1657 1.2155 0 .714.1062 1.2665.3229 1.6532.2166.3868.4928.578.8326.578.2974 0 .5311-.1785.7052-.5312z"/><path d="m97.8457 27.1276c0-.136.0637-.1998.1912-.1998l.3398.0213c.0977 0 .17-.0255.2082-.0808.0382-.0552.0595-.1317.0595-.238v-5.8097c0-.255-.0468-.4208-.1402-.5015-.0935-.0808-.2762-.119-.5523-.119-.0722 0-.1062-.0553-.1062-.17 0-.051.0127-.0893.034-.1148.0212-.0255.0467-.0425.0722-.0425.3611 0 .6882-.0127.9898-.0425.1827-.0127.2974-.0212.3399-.0212.1402 0 .2124.0765.2124.2337v6.5875c0 .1063.0213.187.0595.238s.1062.0808.2082.0808l.3403-.0213c.127 0 .191.068.191.1998 0 .1275-.064.1912-.191.1912-.064 0-.1577-.0085-.2766-.0255-.119-.017-.2847-.0255-.4886-.0255h-.531c-.2039 0-.3696.0085-.4885.0255-.119.017-.2125.0255-.2762.0255-.1274 0-.1912-.0637-.1912-.1912z"/><path d="m100.98 27.1276c0-.136.064-.1997.192-.1997l.339.0212c.098 0 .17-.0255.209-.0807.038-.0553.059-.1318.059-.238v-3.2088c0-.255-.047-.4207-.14-.5015-.094-.0807-.276-.119-.552-.119-.073 0-.107-.0552-.107-.17 0-.051.013-.0892.034-.1147.022-.0255.047-.0425.073-.0425.361 0 .688-.0128.99-.0425.182-.0128.297-.0213.339-.0213.141 0 .213.0765.213.2338v3.9865c0 .1062.021.187.059.238s.106.0807.208.0807l.34-.0212c.128 0 .191.068.191.1997 0 .1275-.063.1913-.191.1913-.063 0-.157-.0085-.276-.0255s-.284-.0255-.488-.0255h-.531c-.204 0-.37.0085-.489.0255s-.212.0255-.276.0255c-.128 0-.191-.0638-.191-.1913zm.727-6.4132c-.119-.119-.174-.255-.174-.408s.059-.2933.174-.408c.115-.1148.255-.1743.42-.1743.166 0 .302.0595.421.1743.119.119.174.255.174.408s-.059.2932-.174.408c-.115.1147-.255.1742-.421.1742-.165 0-.301-.0595-.42-.1742z"/><path d="m104.111 27.1276c0-.136.064-.1998.192-.1998.034 0 .072 0 .114.0085.043.0085.085.0128.128.0128.076 0 .14-.0255.187-.0723.046-.051.068-.1147.068-.1912v-5.865c0-.255-.047-.4208-.141-.5015-.093-.0808-.276-.119-.552-.119-.072 0-.106-.0553-.106-.17 0-.051.013-.0893.034-.1148s.047-.0425.072-.0425c.361 0 .688-.0127.99-.0425.183-.0127.297-.0212.34-.0212.14 0 .212.0765.212.2337v4.9725c0 .051.013.0723.043.0723.021 0 .047-.0128.076-.0425l1.581-1.819c.093-.1148.14-.204.14-.2763 0-.0977-.072-.1487-.213-.1487-.055 0-.106 0-.153.0127-.046.0085-.089.0128-.123.0128-.127 0-.191-.068-.191-.1998 0-.1317.064-.1912.191-.1912.03 0 .106.0085.234.0212.255.0213.429.0298.522.0298h.043c.098 0 .276-.0128.531-.0298.127-.0127.208-.0212.246-.0212.119 0 .179.0637.179.1912 0 .136-.064.1998-.191.1998-.034 0-.073 0-.107-.0128-.034-.0085-.072-.0127-.106-.0127-.076 0-.149.0212-.216.068-.068.0467-.17.1487-.302.3017l-.99 1.139s-.021.0298-.021.0425c0 .0085.008.0255.021.051l1.381 2.261c.051.0935.097.1615.144.204s.106.0638.187.0638l.213-.0085c.127 0 .191.068.191.1997 0 .1275-.064.1913-.191.1913-.043 0-.124-.0085-.247-.0255s-.259-.0255-.412-.0255h-.51c-.127 0-.246.0085-.361.0255s-.195.0255-.242.0255c-.127 0-.191-.0638-.191-.1913 0-.136.064-.1997.191-.1997l.178.0085c.085 0 .128-.0298.128-.085 0-.0128-.013-.0425-.034-.085l-1.011-1.6788s-.021-.0297-.043-.0297c-.012 0-.029.0085-.042.0212l-.433.5015c-.056.0553-.085.136-.085.2423v.8627c0 .0765.021.1403.068.1913.046.051.106.0722.186.0722.043 0 .085 0 .128-.0127.042-.0085.081-.0085.115-.0085.127 0 .191.068.191.1997 0 .1275-.06.1913-.179.1913l-.233-.0213c-.34-.0212-.557-.034-.65-.034h-.107c-.093 0-.305.0128-.649.034l-.234.0213c-.119 0-.179-.0638-.179-.1913z"/><path d="m109.693 27.0593c-.208-.2083-.314-.4803-.314-.8118s.106-.629.314-.85.514-.4122.918-.5865l1.134-.4887c.085-.034.128-.0978.128-.1913v-.2975c0-.7947-.285-1.19-.85-1.19-.204 0-.374.0553-.51.17-.136.1148-.199.2465-.199.4038 0 .0425.012.0765.038.1062.025.0298.063.0595.11.0978.085.0637.149.1232.191.1785.043.0552.064.1402.064.2465 0 .136-.042.2465-.127.34s-.2.1402-.349.1402c-.182 0-.327-.0637-.425-.1912-.097-.1275-.148-.2848-.148-.476 0-.3485.127-.646.382-.8968.255-.2507.616-.3782 1.083-.3782.565 0 .973.1657 1.224.493.246.3315.374.7607.374 1.292v2.091c0 .459.093.6885.284.6885.221 0 .332-.2125.332-.6375l-.021-.4463c0-.1062.042-.1615.127-.1615.072 0 .119.0468.144.1445.026.0978.039.2423.039.442 0 .6885-.259 1.0285-.778 1.0285-.267 0-.488-.102-.658-.306-.119-.136-.2-.3017-.247-.5015-.008-.0425-.025-.0637-.051-.0637-.012 0-.034.017-.051.051-.119.2422-.293.4462-.514.6162-.225.17-.484.255-.781.255-.361 0-.646-.1062-.854-.3145zm1.916-.5738c.179-.272.264-.5992.264-.9817v-.8288c0-.0935-.043-.119-.128-.0765l-.531.2465c-.267.119-.484.306-.65.5525-.14.2125-.212.4718-.212.7778 0 .2252.051.4037.153.5312s.238.1913.408.1913c.284 0 .514-.136.688-.408z"/><path d="m65.8265 40.6849c0-.1573.0722-.2338.2124-.2338.0637 0 .153.0085.2634.0213.1105.0127.2294.0212.3526.0212.136 0 .2422-.0382.3229-.119.0807-.0765.1232-.1827.1232-.3187v-5.8225c0-.136-.0425-.2423-.1232-.3188s-.1912-.119-.3229-.119c-.1189 0-.2379.0085-.3526.0213-.1147.0127-.2039.0212-.2634.0212-.1402 0-.2124-.0765-.2124-.2337 0-.1573.0722-.2338.2124-.2338.051 0 .1445.0085.2847.0213.3611.0212.6542.0297.8836.0297h1.8607c.7774 0 1.4359.153 1.9627.4505.531.3018.7987.7693.7987 1.4068 0 .7565-.4758 1.292-1.4232 1.6065-.0212.0085-.034.017-.034.0297 0 .017.0085.0255.034.034.4588.0978.8582.3188 1.1895.6545.3314.3358.4971.7438.4971 1.2155 0 .3698-.0977.7055-.2932 1.0158-.1954.306-.4843.5567-.8666.7437s-.8454.2805-1.3934.2805h-2.3366c-.2251 0-.5225.0128-.8836.034-.1402.0128-.2379.0213-.2846.0213-.1402 0-.2124-.0765-.2124-.2338zm3.3561-3.91c.4673 0 .8284-.1233 1.0876-.374.2591-.2465.3866-.6205.3866-1.1135s-.1275-.867-.3866-1.1135c-.2592-.2465-.6203-.374-1.0876-.374h-.6924c-.0978 0-.1785.0297-.2379.0892-.0595.0595-.0893.1403-.0893.238v2.38c0 .1063.017.1785.051.2125s.1062.051.2124.051h.7562zm.0935 3.7187c.4885 0 .8751-.1275 1.164-.3867.2846-.2593.4291-.68.4291-1.258s-.1445-1.0285-.4376-1.3175-.6755-.4378-1.1555-.4378h-.8497c-.1062 0-.1784.017-.2124.051s-.051.1063-.051.2125v2.805c0 .0978.0298.1785.0893.238.0594.0595.1401.0893.2379.0893h.7859z"/><path d="m74.0217 40.6171c-.3059-.238-.548-.5483-.718-.935-.1699-.3868-.2549-.7863-.2549-1.207 0-.4208.085-.8203.2549-1.207.17-.3868.4079-.697.718-.935s.6585-.357 1.045-.357c.3866 0 .7392.119 1.0451.357s.548.5482.718.935c.1699.3867.2549.7905.2549 1.207s-.085.8202-.2549 1.207c-.17.3867-.4079.697-.718.935s-.6585.357-1.0451.357c-.3865 0-.7391-.119-1.045-.357zm2.1071-2.142c0-1.4875-.3526-2.2313-1.0621-2.2313-.7094 0-1.062.7438-1.062 2.2313s.3526 2.2312 1.062 2.2312c.7095 0 1.0621-.7437 1.0621-2.2312z"/><path d="m77.7217 40.7277c0-.136.0637-.1998.1911-.1998l.3399.0213c.0977 0 .1699-.0255.2082-.0808.0382-.0552.0595-.1317.0595-.238v-5.8097c0-.255-.0468-.4208-.1402-.5015-.0935-.0808-.2762-.119-.5523-.119-.0722 0-.1062-.0553-.1062-.17 0-.051.0127-.0893.034-.1148.0212-.0255.0467-.0425.0722-.0425.3611 0 .6882-.0127.9898-.0425.1827-.0127.2974-.0212.3399-.0212.1402 0 .2124.0765.2124.2337v6.5875c0 .1063.0212.187.0595.238.0382.051.1062.0808.2081.0808l.3399-.0213c.1274 0 .1912.068.1912.1998 0 .1275-.0638.1912-.1912.1912-.0637 0-.1572-.0085-.2761-.0255-.119-.017-.2847-.0255-.4886-.0255h-.531c-.2039 0-.3696.0085-.4886.0255-.1189.017-.2124.0255-.2761.0255-.1274 0-.1912-.0637-.1912-.1912z"/><path d="m81.1161 40.6594c-.2081-.2083-.3143-.4803-.3143-.8118s.1062-.629.3143-.85c.2082-.221.5141-.4122.9177-.5865l1.1342-.4887c.085-.034.1275-.0978.1275-.1913v-.2975c0-.7947-.2847-1.19-.8497-1.19-.2039 0-.3738.0553-.5098.17-.1359.1148-.1996.2465-.1996.4038 0 .0425.0127.0765.0382.1062.0255.0298.0637.0595.1105.0978.0849.0637.1486.1232.1911.1785.0425.0552.0638.1402.0638.2465 0 .136-.0425.2465-.1275.34s-.1997.1402-.3484.1402c-.1826 0-.3271-.0637-.4248-.1912s-.1487-.2848-.1487-.476c0-.3485.1275-.646.3824-.8968.2549-.2507.616-.3782 1.0833-.3782.565 0 .9728.1657 1.2235.493.2464.3315.3738.7607.3738 1.292v2.091c0 .459.0935.6885.2846.6885.221 0 .3314-.2125.3314-.6375l-.0212-.4463c0-.1062.0425-.1615.1274-.1615.0722 0 .119.0468.1445.1445.0255.0978.0382.2423.0382.442 0 .6885-.2591 1.0285-.7774 1.0285-.2677 0-.4886-.102-.6585-.306-.119-.136-.1997-.3017-.2464-.5015-.0085-.0425-.0255-.0637-.051-.0637-.0127 0-.034.017-.051.051-.1189.2422-.2931.4462-.514.6162-.2252.17-.4843.255-.7817.255-.3611 0-.6457-.1062-.8539-.3145zm1.916-.5738c.1784-.272.2634-.5992.2634-.9817v-.8288c0-.0935-.0425-.119-.1275-.0765l-.531.2465c-.2676.119-.4843.306-.65.5525-.1402.2125-.2124.4718-.2124.7778 0 .2252.051.4037.1529.5312.102.1275.2379.1913.4079.1913.2846 0 .514-.136.6882-.408z"/><path d="m85.4189 40.7277c0-.136.0638-.1998.1912-.1998l.3399.0213c.0977 0 .1699-.0255.2081-.0808.0383-.0552.0595-.1317.0595-.238v-5.8097c0-.255-.0467-.4208-.1402-.5015-.0934-.0808-.2761-.119-.5522-.119-.0723 0-.1063-.0553-.1063-.17 0-.051.0128-.0893.034-.1148.0213-.0255.0468-.0425.0723-.0425.3611 0 .6882-.0127.9898-.0425.1827-.0127.2974-.0212.3398-.0212.1402 0 .2125.0765.2125.2337v6.5875c0 .1063.0212.187.0594.238.0383.051.1062.0808.2082.0808l.3399-.0213c.1274 0 .1911.068.1911.1998 0 .1275-.0637.1912-.1911.1912-.0638 0-.1572-.0085-.2762-.0255-.1189-.017-.2846-.0255-.4885-.0255h-.5311c-.2039 0-.3696.0085-.4885.0255-.119.017-.2124.0255-.2761.0255-.1275 0-.1912-.0637-.1912-.1912z"/><path d="m88.8134 40.6594c-.2082-.2083-.3144-.4803-.3144-.8118s.1062-.629.3144-.85.514-.4122.9176-.5865l1.1343-.4887c.085-.034.1274-.0978.1274-.1913v-.2975c0-.7947-.2846-1.19-.8496-1.19-.2039 0-.3739.0553-.5098.17-.1359.1148-.1997.2465-.1997.4038 0 .0425.0128.0765.0383.1062.0255.0298.0637.0595.1104.0978.085.0637.1487.1232.1912.1785.0425.0552.0637.1402.0637.2465 0 .136-.0425.2465-.1274.34-.085.0935-.1997.1402-.3484.1402-.1827 0-.3271-.0637-.4248-.1912s-.1487-.2848-.1487-.476c0-.3485.1274-.646.3823-.8968.2549-.2507.616-.3782 1.0833-.3782.5651 0 .9729.1657 1.2235.493.2464.3315.3739.7607.3739 1.292v2.091c0 .459.0934.6885.2846.6885.2209 0 .3314-.2125.3314-.6375l-.0213-.4463c0-.1062.0425-.1615.1275-.1615.0722 0 .1189.0468.1444.1445.0255.0978.0383.2423.0383.442 0 .6885-.2592 1.0285-.7775 1.0285-.2676 0-.4885-.102-.6584-.306-.119-.136-.1997-.3017-.2464-.5015-.0085-.0425-.0255-.0637-.051-.0637-.0128 0-.034.017-.051.051-.119.2422-.2931.4462-.514.6162-.2252.17-.4843.255-.7817.255-.3611 0-.6457-.1062-.8539-.3145zm1.9159-.5738c.1785-.272.2634-.5992.2634-.9817v-.8288c0-.0935-.0424-.119-.1274-.0765l-.531.2465c-.2677.119-.4843.306-.65.5525-.1402.2125-.2124.4718-.2124.7778 0 .2252.0509.4037.1529.5312s.2379.1913.4078.1913c.2847 0 .5141-.136.6883-.408z"/><path d="m93.3849 40.7277c0-.136.0637-.1997.1911-.1997.034 0 .0723 0 .1147.0085.0425.0085.085.0127.1275.0127.0765 0 .1402-.0255.1869-.0722.0467-.051.068-.1148.068-.1913v-3.2937c0-.255-.0467-.4208-.1402-.4973s-.2761-.119-.5523-.119c-.0722 0-.1062-.0552-.1062-.17 0-.051.0128-.0892.034-.119.0212-.0297.0467-.0425.0722-.0425.3611 0 .6882-.0127.9899-.0425.1826-.0127.2973-.0212.3398-.0212.1402 0 .2124.0765.2124.2337v.8925c0 .034.0128.051.034.051.0213 0 .034-.0127.0425-.0425.034-.0935.1062-.2252.2124-.4037s.2507-.3443.4291-.4973.3823-.2337.6117-.2337.4079.0807.5481.2465c.1401.1615.2081.3485.2081.5525 0 .1827-.0552.3357-.1699.459-.1147.1232-.2592.1785-.4376.1785-.1359 0-.2506-.0425-.3441-.1275-.0934-.085-.1444-.204-.1444-.3528 0-.0765.0127-.153.0382-.2295s.0382-.1232.0382-.153c0-.0722-.0424-.1062-.1274-.1062-.1062 0-.2337.1105-.3866.3357-.1529.221-.2804.5185-.3866.8883-.1062.3697-.1614.765-.1614 1.19v1.3685c0 .1062.0212.187.0595.238.0382.051.1062.0807.2081.0807l.3399-.0212c.1274 0 .1911.068.1911.1997 0 .1275-.0637.1913-.1911.1913-.0637 0-.1572-.0085-.2762-.0255-.1189-.017-.2846-.0255-.4885-.0255h-.3186c-.0935 0-.3059.0127-.65.034l-.2337.0212c-.1189 0-.1784-.0637-.1784-.1912z"/><path d="m65.8262 54.285c0-.1573.0722-.2338.2124-.2338.0637 0 .1529.0085.2634.0213.1104.0127.2294.0212.3526.0212.2974 0 .446-.1445.446-.4377v-5.8225c0-.136-.0424-.2423-.1232-.3188-.0807-.0765-.1911-.119-.3228-.119-.119 0-.2379.0085-.3526.0213-.1147.0127-.2039.0212-.2634.0212-.1402 0-.2124-.0765-.2124-.2337 0-.1573.0722-.2338.2124-.2338.051 0 .1444.0085.2846.0213.3611.0212.6542.0297.8836.0297h.8497c.1359 0 .3526-.0127.6457-.0297.1402-.0128.2464-.0213.3102-.0213.1401 0 .2124.0765.2124.2338 0 .1572-.0723.2337-.2124.2337-.051 0-.1232-.0085-.2252-.0212-.1147-.0128-.2124-.0213-.2974-.0213-.2209 0-.3271.1445-.3271.4378v2.9962c0 .0553.0212.085.0637.085.0298 0 .051-.0127.0765-.0297l2.6764-2.9113c.1359-.1487.1997-.2762.1997-.3825 0-.1275-.0765-.1912-.2337-.1912h-.0722c-.085 0-.1997.0085-.3399.0212-.0977.0128-.1742.0213-.2251.0213-.1402 0-.2124-.0765-.2124-.2338 0-.1572.0722-.2337.2124-.2337.0637 0 .1656.0085.3101.0212.2974.0213.514.0298.6457.0298h.3611c.1997 0 .4673-.0128.8072-.0298.1402-.0127.2421-.0212.2974-.0212.1402 0 .2124.0765.2124.2337 0 .1573-.0722.2338-.2124.2338-.0553 0-.1317-.0085-.2252-.0213-.0935-.0127-.1614-.0212-.1997-.0212-.0764 0-.1444.0127-.1996.0425-.0553.0297-.136.0935-.2379.1912-.102.0978-.2294.2295-.3781.391l-1.4529 1.5853c-.034.034-.051.0807-.051.136 0 .0425.0085.0765.0212.0935l1.9542 3.8122c.085.1615.1615.2763.2337.34.0722.0638.1699.0935.2974.0935.1189 0 .2379-.0085.3526-.0212.1147-.0128.1996-.0213.2634-.0213.1401 0 .2124.0765.2124.2338 0 .1572-.0723.2337-.2124.2337-.051 0-.1445-.0085-.2847-.0212-.3611-.0213-.6542-.034-.8836-.034h-1.0281c-.1359 0-.3526.0127-.65.034-.1402.0127-.2464.0212-.3058.0212-.1402 0-.2125-.0765-.2125-.2337 0-.1573.0723-.2338.2125-.2338.0509 0 .1232.0085.2209.0213.1147.0127.2166.0212.3101.0212.1359 0 .2336-.017.2931-.0467.0595-.034.0892-.0893.0892-.1658 0-.051-.0085-.0935-.0255-.136s-.0424-.0935-.0679-.1487l-1.5294-2.9665c-.0127-.034-.034-.051-.051-.051-.0085 0-.034.0255-.0849.0765l-.8412.9265c-.0637.0722-.0977.153-.0977.2422v1.836c0 .289.1105.4378.3271.4378.085 0 .1827-.0085.2974-.0213.0977-.0127.1742-.0212.2251-.0212.1402 0 .2125.0765.2125.2337 0 .1573-.0723.2338-.2125.2338-.0637 0-.1656-.0085-.3101-.0213-.2973-.0212-.514-.034-.6457-.034h-.8497c-.2251 0-.5225.0128-.8836.034-.1402.0128-.2379.0213-.2846.0213-.1402 0-.2124-.0765-.2124-.2338z"/><path d="m74.4887 54.2002c-.2166-.2465-.3228-.6375-.3228-1.1688v-2.4437c0-.255-.0468-.4208-.1402-.4973-.0935-.0765-.2762-.119-.5523-.119-.0722 0-.1062-.0552-.1062-.17 0-.051.0127-.0892.034-.119.0212-.0297.0467-.0425.0722-.0425.3611 0 .6882-.0127.9898-.0425.1827-.0127.2974-.0212.3399-.0212.1402 0 .2124.0765.2124.2337v3.2725c0 .7778.2124 1.1688.6372 1.1688.1997 0 .3824-.085.5523-.255s.3059-.4123.4078-.7268c.102-.3145.153-.68.153-1.088v-1.5937c0-.255-.0468-.4208-.1402-.4973-.0935-.0765-.2761-.119-.5523-.119-.0722 0-.1062-.0552-.1062-.17 0-.051.0128-.0892.034-.119.0212-.0297.0467-.0425.0722-.0425.3611 0 .6882-.0127.9899-.0425.1826-.0127.2973-.0212.3398-.0212.1402 0 .2124.0765.2124.2337v3.706c0 .255.0468.4208.1402.5015.0935.0765.2762.1148.5523.1148.0722 0 .1062.0552.1062.17 0 .051-.0127.0892-.034.119-.0212.0297-.0467.0425-.0722.0425-.3611 0-.6882.0127-.9898.0425-.1827.0127-.2974.0212-.3399.0212-.1402 0-.2124-.0765-.2124-.2337v-.6035c0-.0298-.0128-.0425-.034-.0425-.0128 0-.034.0255-.051.0722-.0765.204-.2209.3995-.4248.578s-.4588.272-.7647.272c-.4546 0-.7859-.1232-1.0026-.374z"/><path d="m79.7987 54.217c-.2039-.238-.3016-.5737-.3016-1.003v-2.9112c0-.0978-.017-.1658-.0467-.204-.034-.034-.0935-.0553-.1869-.0638-.0638 0-.1275 0-.187.0085-.0594.0085-.1147.0128-.1657.0128-.1189 0-.1784-.068-.1784-.1998 0-.0722.017-.1232.0468-.1657.0297-.0425.0764-.0595.1316-.0595.2889 0 .5268-.1658.7053-.5058.1784-.3357.2718-.731.2718-1.1857 0-.0723.0213-.119.0638-.1488.0424-.0297.0934-.0425.1487-.0425.0552 0 .1062.0128.1486.0425.0425.0298.0638.0765.0638.1488 0 .2635 0 .4547-.0085.5737l-.0128.8288c0 .2125.1062.3187.3186.3187h.119c.1572 0 .3059-.0085.4461-.0212l.2761-.0128c.0637 0 .1147.0213.1487.0595.034.0383.051.0935.051.1658 0 .1402-.068.2125-.1997.2125l-.2549-.0128c-.1274-.0127-.2634-.0212-.4121-.0212h-.1699c-.1062 0-.1784.017-.2124.051s-.051.1062-.051.2125v3.06c0 .2975.0467.5142.1402.6417.0935.1318.2294.1955.4121.1955.2251 0 .3908-.1105.4928-.3357.1019-.2253.1529-.5865.1529-1.088 0-.136.051-.1998.1487-.1998.1147 0 .1699.068.1699.1998 0 .629-.0934 1.088-.2846 1.3685-.1912.2847-.4758.425-.8624.425-.4121 0-.718-.119-.9176-.357z"/><path d="m83.5161 54.2002c-.2167-.2465-.3229-.6375-.3229-1.1688v-2.4437c0-.255-.0467-.4208-.1402-.4973s-.2761-.119-.5523-.119c-.0722 0-.1062-.0552-.1062-.17 0-.051.0128-.0892.034-.119.0213-.0297.0467-.0425.0722-.0425.3611 0 .6883-.0127.9899-.0425.1827-.0127.2974-.0212.3398-.0212.1402 0 .2124.0765.2124.2337v3.2725c0 .7778.2125 1.1688.6373 1.1688.1997 0 .3823-.085.5523-.255.1699-.17.3058-.4123.4078-.7268.1019-.3145.1529-.68.1529-1.088v-1.5937c0-.255-.0467-.4208-.1402-.4973-.0934-.0765-.2761-.119-.5522-.119-.0723 0-.1062-.0552-.1062-.17 0-.051.0127-.0892.0339-.119.0213-.0297.0468-.0425.0723-.0425.3611 0 .6882-.0127.9898-.0425.1827-.0127.2974-.0212.3399-.0212.1401 0 .2124.0765.2124.2337v3.706c0 .255.0467.4208.1402.5015.0934.0765.2761.1148.5522.1148.0723 0 .1062.0552.1062.17 0 .051-.0127.0892-.0339.119-.0213.0297-.0468.0425-.0723.0425-.3611 0-.6882.0127-.9898.0425-.1827.0127-.2974.0212-.3399.0212-.1402 0-.2124-.0765-.2124-.2337v-.6035c0-.0298-.0127-.0425-.034-.0425-.0127 0-.0339.0255-.0509.0722-.0765.204-.2209.3995-.4249.578-.2039.1785-.4588.272-.7646.272-.4546 0-.786-.1232-1.0026-.374z"/><path d="m88.5203 54.5228c-.0128-.034-.0213-.085-.0213-.153v-6.3538c0-.2125-.0637-.3697-.1954-.4675-.1317-.0977-.3653-.1487-.7052-.1487-.0722 0-.1062-.0553-.1062-.17 0-.051.0127-.0893.034-.1148.0212-.0255.0467-.0425.0722-.0425.4036 0 .7902-.0127 1.1555-.0425l.3824-.0212c.1402 0 .2124.0765.2124.2337v3.2003c0 .034.0127.051.034.051.0127 0 .0339-.017.0509-.051s.034-.0595.0425-.0765c.2974-.5228.6585-.7863 1.0833-.7863.3696 0 .6925.119.9771.3528.2846.2337.5013.5397.6585.9222s.2336.7905.2336 1.224-.0764.8373-.2336 1.224c-.1572.3825-.3739.6885-.6585.9265-.2846.2338-.6075.3485-.9771.3485-.2634 0-.4758-.0552-.6457-.1657s-.3016-.2168-.3909-.3188c-.0934-.102-.1486-.1657-.1699-.187-.034-.034-.0637-.051-.0849-.051-.0213 0-.0595.034-.1147.1063l-.3612.4887c-.0637.085-.1189.1275-.1699.1275s-.0807-.017-.0977-.0467zm2.6933-.748c.1742-.3528.2592-.9223.2592-1.7 0-.7778-.085-1.3473-.2592-1.7-.1741-.3528-.4078-.5313-.7052-.5313-.1996 0-.3866.085-.5607.255-.1785.17-.3186.425-.4291.7608-.1105.3357-.1657.7437-.1657 1.2155 0 .714.1062 1.2665.3229 1.6532.2166.3868.4928.578.8326.578.2974 0 .5311-.1785.7052-.5312z"/><path d="m92.9385 54.3274c0-.136.0637-.1998.1911-.1998.034 0 .0723 0 .1148.0085.0424.0085.0849.0128.1274.0128.1274 0 .2464-.0723.3526-.2253l1.1598-1.6872c.0297-.034.0424-.0723.0424-.119 0-.0468-.0127-.0808-.0424-.1148l-1.1683-1.7425c-.0637-.0977-.1189-.1657-.1699-.1997s-.1062-.051-.17-.051c-.0297 0-.0594 0-.0934.0127-.034.0085-.0722.0128-.1062.0128-.1275 0-.1912-.068-.1912-.1998 0-.1317.0595-.1912.1784-.1912l.2464.0212c.3399.0213.5353.0298.5863.0298h.085c.0509 0 .2463-.0128.5862-.0298l.2464-.0212c.119 0 .1784.0637.1784.1912 0 .136-.0637.1998-.1911.1998-.0425 0-.0808 0-.1147-.0128-.034-.0085-.068-.0127-.0978-.0127-.0637 0-.0934.034-.0934.0935 0 .034.0297.0977.085.1827l.7094 1.0625c.034.0425.0595.0638.0722.0638.0128 0 .0383-.0255.0723-.0765l.6372-.935c.0637-.0978.0977-.1828.0977-.2465 0-.0978-.0765-.1488-.2337-.1488-.0339 0-.0722 0-.1147.0128-.0424.0085-.0807.0127-.1189.0127-.1275 0-.1912-.068-.1912-.1997 0-.1318.0595-.1913.1827-.1913l.2846.0213.4758.0297.4461-.0297.2761-.0213c.119 0 .1785.0638.1785.1913 0 .136-.0638.1997-.1912.1997-.034 0-.0722 0-.119-.0127-.0425-.0085-.0849-.0128-.1274-.0128-.1275 0-.2464.0765-.3526.2253l-.9559 1.394c-.0297.0552-.0425.0935-.0425.119s.0128.0595.0425.1147l1.3807 2.0528s.0255.0467.0595.0935c.034.0467.068.0892.1104.1105.0425.0255.0935.0382.1487.0382.0298 0 .0595 0 .0977-.0127.034-.0085.0723-.0085.1062-.0085.1275 0 .1912.068.1912.1997 0 .1275-.0595.1913-.1827.1913l-.2336-.0213c-.3611-.0212-.5735-.034-.6373-.034h-.0509c-.0425 0-.2337.0128-.5735.034l-.2464.0213c-.119 0-.1785-.0638-.1785-.1913 0-.136.0638-.1997.1912-.1997.0425 0 .0807 0 .1147.0085s.068.0127.0977.0127c.0637 0 .0935-.0297.0935-.0935 0-.0425-.0298-.1062-.085-.1912l-.9006-1.3515c-.034-.0425-.0595-.0638-.0722-.0638-.0128 0-.0383.0255-.0723.0765l-.8411 1.2325c-.0637.0935-.0935.1743-.0935.2423 0 .0977.0765.1487.2337.1487.034 0 .0722 0 .1189-.0127.0425-.0085.0807-.0085.1147-.0085.1275 0 .1912.068.1912.1997 0 .1275-.0595.1913-.1784.1913l-.2634-.0213c-.3186-.0212-.4843-.034-.4971-.034l-.3313.0213c-.1614.0213-.2931.0297-.3909.0297-.1189 0-.1784-.0637-.1784-.1912z"/><path d="m99.2004 54.2172c-.3059-.238-.548-.5483-.718-.935-.1699-.3868-.2549-.7863-.2549-1.207 0-.4208.085-.8203.2549-1.207.17-.3868.4079-.697.718-.935s.6585-.357 1.0446-.357c.387 0 .74.119 1.046.357.305.238.548.5482.717.935.17.3867.255.7905.255 1.207s-.085.8202-.255 1.207c-.169.3867-.407.697-.717.935-.311.238-.659.357-1.046.357-.3861 0-.7387-.119-1.0446-.357zm2.1076-2.142c0-1.4875-.353-2.2313-1.063-2.2313-.709 0-1.0616.7438-1.0616 2.2313s.3526 2.2312 1.0616 2.2312c.71 0 1.063-.7437 1.063-2.2312z"/><path d="m103.168 54.3273c0-.136.064-.1997.191-.1997.034 0 .072 0 .115.0085.042.0085.085.0127.127.0127.077 0 .141-.0255.187-.0722.047-.051.068-.1148.068-.1913v-3.2937c0-.255-.046-.4208-.14-.4973-.093-.0765-.276-.119-.552-.119-.072 0-.106-.0552-.106-.17 0-.051.012-.0892.034-.119.021-.0297.046-.0425.072-.0425.361 0 .688-.0127.99-.0425.182-.0127.297-.0212.34-.0212.14 0 .212.0765.212.2337v.6503c0 .0297.013.0425.034.0425.013 0 .034-.0255.051-.0765.076-.204.221-.3995.425-.578.204-.1828.459-.272.764-.272.455 0 .786.1232 1.003.374.217.2465.323.6375.323 1.1687v2.7625c0 .0765.021.1403.068.1913s.106.0722.187.0722c.042 0 .085 0 .127-.0127.043-.0085.081-.0085.115-.0085.127 0 .191.068.191.1997 0 .1275-.059.1913-.178.1913l-.234-.0213c-.34-.0212-.557-.034-.65-.034h-.106c-.094 0-.306.0128-.65.034l-.234.0213c-.119 0-.178-.0638-.178-.1913 0-.136.063-.1997.191-.1997.034 0 .072 0 .115.0085.042.0085.085.0127.127.0127.077 0 .14-.0255.187-.0722.047-.051.068-.1148.068-.1913v-2.8135c0-.7777-.212-1.1687-.637-1.1687-.2 0-.383.085-.553.255-.169.17-.305.4122-.407.7267s-.153.68-.153 1.088v1.9125c0 .0765.021.1403.068.1913.046.051.106.0722.187.0722.042 0 .085 0 .127-.0127.043-.0085.081-.0085.115-.0085.127 0 .191.068.191.1997 0 .1275-.06.1913-.179.1913l-.233-.0213c-.34-.0212-.557-.034-.65-.034h-.106c-.094 0-.306.0128-.65.034l-.234.0213c-.119 0-.178-.0638-.178-.1913z"/><path d="m109.006 54.2595c-.208-.2083-.315-.4803-.315-.8118s.107-.629.315-.85.514-.4122.917-.5865l1.135-.4887c.085-.034.127-.0978.127-.1913v-.2975c0-.7947-.285-1.19-.85-1.19-.203 0-.373.0553-.509.17-.136.1148-.2.2465-.2.4038 0 .0425.013.0765.038.1062.026.0298.064.0595.111.0978.085.0637.148.1232.191.1785.042.0552.064.1402.064.2465 0 .136-.043.2465-.128.34s-.2.1402-.348.1402c-.183 0-.327-.0637-.425-.1912s-.149-.2848-.149-.476c0-.3485.128-.646.383-.8968.255-.2507.616-.3782 1.083-.3782.565 0 .973.1657 1.223.493.247.3315.374.7607.374 1.292v2.091c0 .459.094.6885.285.6885.221 0 .331-.2125.331-.6375l-.021-.4463c0-.1062.043-.1615.127-.1615.073 0 .119.0468.145.1445.025.0978.038.2423.038.442 0 .6885-.259 1.0285-.777 1.0285-.268 0-.489-.102-.659-.306-.119-.136-.199-.3017-.246-.5015-.009-.0425-.026-.0637-.051-.0637-.013 0-.034.017-.051.051-.119.2422-.293.4462-.514.6162-.225.17-.484.255-.782.255-.361 0-.646-.1062-.854-.3145zm1.916-.5738c.178-.272.263-.5992.263-.9817v-.8288c0-.0935-.042-.119-.127-.0765l-.531.2465c-.268.119-.485.306-.65.5525-.141.2125-.213.4718-.213.7778 0 .2252.051.4037.153.5312s.238.1913.408.1913c.285 0 .514-.136.688-.408z"/><path d="m113.597 54.3829c.013-.3697.022-.629.022-.7862 0-.1573-.009-.4335-.022-.8288 0-.0935.034-.136.107-.136.042 0 .076.017.102.0595.025.0425.051.1063.08.1955.098.306.281.6163.544.935.263.3188.582.476.956.476.297 0 .518-.0722.663-.221.144-.1487.216-.34.216-.5737 0-.425-.25-.7268-.756-.9138l-.837-.3187c-.73-.2848-1.096-.7608-1.096-1.4365 0-.3953.123-.7055.374-.9265.246-.221.544-.3315.892-.3315.327 0 .62.0807.884.2465.051.0297.097.051.14.0722.042.0213.089.034.14.034.072 0 .115-.0382.14-.119.034-.0977.064-.1615.085-.1912.022-.0298.056-.0425.107-.0425.076 0 .118.051.118.1615-.008.1615-.012.3952-.012.6885 0 .3102 0 .5652.012.765 0 .1275-.042.1912-.127.1912-.042 0-.072-.0212-.098-.0637-.025-.0425-.051-.1275-.085-.255-.097-.391-.255-.6885-.463-.8968-.208-.2082-.488-.3145-.845-.3145-.234 0-.421.0638-.565.187-.14.1233-.213.289-.213.493 0 .2423.064.425.196.5483.132.1232.361.2507.684.3782l.777.2975c.319.119.574.3018.765.544.191.2423.285.5355.285.8798 0 .4122-.119.748-.361 1.003-.243.2592-.587.3867-1.033.3867-.199 0-.374-.0297-.518-.085-.145-.0552-.319-.1445-.51-.2635-.03-.0212-.068-.051-.115-.085-.051-.034-.089-.051-.119-.051-.042 0-.08.0383-.119.119-.063.1488-.11.2465-.135.2975-.03.051-.073.0723-.128.0723-.085 0-.127-.0638-.127-.1913z"/><path d="m117.558 54.3278c0-.136.063-.1997.191-.1997l.34.0212c.097 0 .17-.0255.208-.0807.038-.0553.059-.1318.059-.238v-3.2088c0-.255-.046-.4207-.14-.5015-.093-.0807-.276-.119-.552-.119-.072 0-.106-.0552-.106-.17 0-.051.012-.0892.034-.1147.021-.0255.046-.0425.072-.0425.361 0 .688-.0128.99-.0425.182-.0128.297-.0213.34-.0213.14 0 .212.0765.212.2338v3.9865c0 .1062.021.187.059.238.039.051.107.0807.209.0807l.339-.0212c.128 0 .192.068.192.1997 0 .1275-.064.1913-.192.1913-.063 0-.157-.0085-.276-.0255s-.284-.0255-.488-.0255h-.531c-.204 0-.37.0085-.489.0255s-.212.0255-.276.0255c-.127 0-.191-.0638-.191-.1913zm.726-6.4132c-.119-.119-.174-.255-.174-.408s.059-.2933.174-.408c.115-.1148.255-.1743.421-.1743.165 0 .301.0595.42.1743.119.119.174.255.174.408s-.059.2932-.174.408c-.114.1147-.255.1742-.42.1742-.166 0-.302-.0595-.421-.1742z"/><path d="m45.8852 17.7097h-35.2944c0-9.7792 7.9017-17.7097 17.6472-17.7097s17.6472 7.9305 17.6472 17.7097z"/><path d="m56.4761 17.71v67.2902h-56.4761v-67.2902h10.5909v56.6652h35.2986v-56.6652h10.5908z"/></g></svg>