<svg width="210" height="25" viewBox="0 0 210 25" fill="none" xmlns="http://www.w3.org/2000/svg">
<path d="M48.4638 19.934C45.1115 17.365 39.7952 11.8548 37.2455 9.17304C34.6954 6.49154 24.7353 12.498 24.7353 12.498C17.1231 16.1607 9.56761 21.0772 5.83438 23.6444C4.63297 24.5499 2.53246 24.648 1.14594 23.8633C-0.239862 23.0786 -0.389949 21.7065 0.811462 20.8013C4.93028 17.3998 13.963 10.3596 22.6752 5.97316C27.8193 3.38339 33.0545 1.85277 37.2455 1.74541C39.5093 1.69266 41.7609 2.28176 43.9476 3.45621C47.2345 5.22139 50.5825 9.08015 54.3079 12.6656C55.6272 13.9353 56.9798 15.1758 58.5232 16.1593C59.7024 16.9109 60.9167 17.5625 62.4208 17.7268C65.8928 18.114 68.7412 17.0021 71.4496 15.4843C76.2785 12.7786 80.6167 8.85305 85.2308 5.79135C89.6008 2.89115 94.2693 0.718461 99.5398 0.214323C104.514 -0.323657 108.062 0.834926 110.996 2.9278C113.646 4.81691 115.651 7.79623 118.021 10.7758C120.167 13.4741 122.601 16.305 127.813 17.0044C131.948 17.601 135.361 16.7643 138.484 15.3987C144.029 12.9751 148.777 9.06241 153.88 5.93745C158.487 3.11615 163.388 0.888841 168.898 0.106961C171.531 -0.266941 174.712 0.314684 177.945 2.24371C181.15 4.15523 185.125 7.9204 191.247 9.74766C194.462 10.7072 198.349 11.0173 203.138 9.99553C205.867 9.4013 208.822 10.3662 209.732 12.1486C210.641 13.9311 209.164 15.8608 206.435 16.455C198.597 18.1952 192.206 17.6059 186.893 16.0718C180.548 14.2396 175.833 10.8703 172.166 8.45371C168.021 5.7211 162.279 10.5937 158.998 12.7874C154.382 15.8736 149.82 19.229 144.689 21.4637C139.064 23.9139 132.811 25.1498 125.388 24.036C121.59 23.4338 118.545 22.3002 116.064 20.7908C110.936 17.671 108.422 12.8425 105.535 9.17304C104.365 7.687 103.516 6.20703 101.005 6.43506C96.1439 6.9567 92.5086 9.97172 88.6907 13.0157C83.9561 16.7907 79.2395 20.806 73.7584 23.01C69.8476 24.5826 65.5583 25.3089 60.7366 24.8772C56.0482 24.4435 51.9261 22.588 48.4638 19.934Z" fill="#344D32"/>
</svg>
